<svg xmlns="http://www.w3.org/2000/svg" viewBox="0 0 120 120" fill="none">
  <!-- More Yellowish / Haldi Parchment background -->
  <rect width="120" height="120" rx="28" fill="#FDF4C1"/>
  
  <!-- Bolder Border color same as Ganesha color (#C06C2D) -->
  <rect x="2" y="2" width="116" height="116" rx="26" stroke="#C06C2D" stroke-width="5" opacity="0.8"/>
  
  <g>
    <!-- Calligraphic Swastika background -->
    <path d="M60 20 L 60 60 L 100 60 Q 115 60 110 80 Q 105 100 85 100 L 85 85 Q 95 85 95 75 Q 95 65 85 65 L 60 65 L 60 105 Q 60 120 40 115 Q 20 110 20 90 L 35 90 Q 35 100 45 100 Q 55 100 55 90 L 55 65 L 15 65 Q 0 65 5 45 Q 10 25 30 25 L 30 40 Q 20 40 20 50 Q 20 60 30 60 L 55 60 L 55 20 Q 55 5 75 10 Q 95 15 95 35 L 80 35 Q 80 25 70 25 Q 60 25 60 35 V 20 Z" fill="#C06C2D" opacity="0.12" />
    <circle cx="40" cy="40" r="4" fill="#C06C2D" opacity="0.12" />
    <circle cx="80" cy="40" r="4" fill="#C06C2D" opacity="0.12" />
    <circle cx="40" cy="80" r="4" fill="#C06C2D" opacity="0.12" />
    <circle cx="80" cy="80" r="4" fill="#C06C2D" opacity="0.12" />
    
    <g transform="translate(10, 5) scale(0.8)">
      <!-- Ganesha in Terracotta -->
      <path d="M30.63,77.67c-9.43-13.04-12.22-32.41-2.3-41.01c-2.28-8.02-11.02-10.6-18.19-8.23 C-0.23,31.87-0.99,40.02,0.69,48.47c1.56,7.83,7.99,31.71,10.79,37.66c1.24,2.64,2.78,4.04,4.58,4.32c2.54,0.4,5.6-1.43,9.11-5.16 L30.63,77.67L30.63,77.67z M37.21,47.99c5.67,2,6.33,4.37,7.38,9.55c-0.65-0.57-1.25-1.16-1.8-1.77c-0.09,0.07-0.19,0.13-0.29,0.18 c-1.23,0.64-2.8,0.05-3.52-1.32c-0.61-1.17-0.39-2.52,0.45-3.29C38.68,50.22,37.97,49.1,37.21,47.99L37.21,47.99z M55.9,10.26 h-5.63c-0.01-0.81-0.56-1.68-1.22-2.18c2.01-0.47,3.35-1.47,4.14-3.19c0.73,2.02,2.33,2.65,3.96,3.19 C56.35,8.55,55.91,9.51,55.9,10.26L55.9,10.26z M69,47.99c-5.67,2-6.33,4.37-7.38,9.55c0.65-0.57,1.25-1.16,1.8-1.77 c0.09,0.07,0.19,0.13,0.29,0.18c1.23,0.64,2.8,0.05,3.52-1.32c0.61-1.17,0.39-2.52-0.45-3.29C67.52,50.22,68.24,49.1,69,47.99 L69,47.99z M32.91,32.48c12.95-5.35,26.47-5.57,40.62,0c9.35-12.51-24.19-17.86-11.8-25.13C58.32,6.22,54.77,4.22,53.24,0 c-1.65,3.6-4.27,6.38-8.46,7.35C56.82,16.34,22.81,18.58,32.91,32.48L32.91,32.48z M75.17,75.96c9.43-13.04,12.22-32.41,2.3-41.01 c2.28-8.02,11.02-10.6,18.19-8.23c10.37,3.43,11.13,11.58,9.45,20.04c-1.56,7.83-7.99,31.71-10.79,37.66 c-1.24,2.64,2.78,4.04-4.58,4.32c-2.54,0.4-5.6-1.43-9.11-5.16L75.17,75.96L75.17,75.96z M72.8,38.28 c-15.29-4.85-28.42-4.41-38.75-0.21c-7.5,5.47-8.23,14.04-4.73,25.63c2.4,7.94,6.76,10.58,9.01,16.68 c6.44,17.44,3.08,47.17,43.53,41.89c4.55-0.59,8.75-1.77,12.59-3.56c9.99-6.06-3.86-6.69-7.78-6.91 c-21.58-1.25-23.04-8.24-18.05-27.29l2.02-7.71C77.82,58.76,80.49,44.36,72.8,38.28L72.8,38.28z" fill="#C06C2D"/>
    </g>
  </g>
</svg>
